<svg xmlns="http://www.w3.org/2000/svg" version="1.1" xmlns:xlink="http://www.w3.org/1999/xlink" xmlns:svgjs="http://svgjs.dev/svgjs" width="1500" height="1500" viewBox="0 0 1500 1500"><g transform="matrix(1,0,0,1,-0.21332335329316265,-0.21332335329350371)"><svg viewBox="0 0 334 334" data-background-color="#010c80" preserveAspectRatio="xMidYMid meet" height="1500" width="1500" xmlns="http://www.w3.org/2000/svg" xmlns:xlink="http://www.w3.org/1999/xlink"><g id="tight-bounds" transform="matrix(1,0,0,1,0.04749999999998522,0.04750000000001364)"><svg viewBox="0 0 333.90454557049503 333.90454557049503" height="333.90454557049503" width="333.90454557049503"><g><svg></svg></g><g><svg viewBox="0 0 333.90454557049503 333.90454557049503" height="333.90454557049503" width="333.90454557049503"><g><path d="M0 166.952c0-92.205 74.747-166.952 166.952-166.952 92.205 0 166.952 74.747 166.953 166.952 0 92.205-74.747 166.952-166.953 166.953-92.205 0-166.952-74.747-166.952-166.953zM166.952 316.63c82.665 0 149.677-67.013 149.678-149.678 0-82.665-67.013-149.677-149.678-149.677-82.665 0-149.677 67.013-149.677 149.677 0 82.665 67.013 149.677 149.677 149.678z" data-fill-palette-color="tertiary" fill="#77d4fc" stroke="transparent"></path><ellipse rx="160.27418187383762" ry="160.27418187383762" cx="166.95227278524752" cy="166.95227278524752" fill="#77d4fc" stroke="transparent" stroke-width="0" fill-opacity="1" data-fill-palette-color="tertiary"></ellipse></g><g transform="matrix(1,0,0,1,75.65633483868753,71.17305217166896)"><svg viewBox="0 0 182.59187589311998 191.55844122715712" height="191.55844122715712" width="182.59187589311998"><g><svg viewBox="0 0 182.59187589311998 191.55844122715712" height="191.55844122715712" width="182.59187589311998"><g><svg viewBox="0 0 182.59187589311998 191.55844122715712" height="191.55844122715712" width="182.59187589311998"><g><svg viewBox="0 0 182.59187589311998 191.55844122715712" height="191.55844122715712" width="182.59187589311998"><g id="textblocktransform"><svg viewBox="0 0 182.59187589311998 191.55844122715712" height="191.55844122715712" width="182.59187589311998" id="textblock"><g><svg viewBox="0 0 182.59187589311998 191.55844122715712" height="191.55844122715712" width="182.59187589311998"><g transform="matrix(1,0,0,1,0,0)"><svg width="182.59187589311998" viewBox="-0.78 -34.96 32.81 34.42" height="191.55844122715712" data-palette-color="#010c80"><path d="M22.51-34.96L32.03-2.1 19.92-0.54 18.46-6.05 12.89-6.05 11.67-0.54-0.78-1.76 8.94-34.28 22.51-34.96ZM13.92-13.53L17.58-13.53 15.72-22.02 13.92-13.53Z" opacity="1" transform="matrix(1,0,0,1,0,0)" fill="#010c80" class="wordmark-text-0" data-fill-palette-color="quaternary" id="text-0"></path></svg></g></svg></g></svg></g></svg></g><g></g></svg></g></svg></g></svg></g></svg></g><defs></defs></svg><rect width="333.90454557049503" height="333.90454557049503" fill="none" stroke="none" visibility="hidden"></rect></g></svg></g></svg>